<svg version="1.1" xmlns="http://www.w3.org/2000/svg" viewBox="0 0 638 207">
  <path fill="white" fill-rule="evenodd" d="M 394.00,98.50 L 364.50,20.00 L 367.00,18.50 L 383.00,21.50 L 404.00,30.50 L 414.00,37.50 L 429.50,55.00 L 394.00,98.50 Z M 181.00,190.50 L 140.00,189.50 L 128.50,153.00 L 102.00,151.50 L 66.00,152.50 L 54.00,189.50 L 12.50,189.00 L 74.00,19.50 L 121.50,20.00 L 161.50,130.00 L 181.00,190.50 Z M 371.00,72.50 L 292.00,59.50 L 288.50,57.00 L 313.00,32.50 L 334.00,22.50 L 352.00,19.50 L 371.00,72.50 Z M 612.00,190.50 L 571.00,190.50 L 559.00,152.50 L 529.00,151.50 L 498.00,152.50 L 486.00,189.50 L 444.50,189.00 L 506.00,19.50 L 553.50,21.00 L 604.50,163.00 L 612.00,190.50 Z M 115.50,122.00 L 117.50,121.00 L 116.50,115.00 L 97.00,50.50 L 75.50,121.00 L 115.50,122.00 Z M 549.50,122.00 L 528.00,51.50 L 507.50,122.00 L 549.50,122.00 Z M 245.00,193.50 L 227.00,193.50 L 216.00,190.50 L 204.50,180.00 L 200.50,171.00 L 200.00,68.50 L 235.50,69.00 L 236.50,154.00 L 238.50,159.00 L 245.00,164.50 L 261.50,165.00 L 261.50,189.00 L 245.00,193.50 Z M 284.00,142.50 L 279.50,136.00 L 274.50,115.00 L 274.50,91.00 L 280.50,69.00 L 335.00,78.50 L 336.50,81.00 L 284.00,142.50 Z M 353.00,189.50 L 338.00,188.50 L 322.00,182.50 L 303.00,169.50 L 290.50,154.00 L 326.00,111.50 L 352.50,181.00 L 354.50,187.00 L 353.00,189.50 Z M 373.00,189.50 L 367.50,189.00 L 350.50,143.00 L 351.00,138.50 L 376.00,141.50 L 430.50,153.00 L 417.00,169.50 L 402.00,180.50 L 373.00,189.50 Z "/>
  
  <!-- Perfect Circle for the "i" -->
  <circle cx="218.00" cy="36.00" r="18.50" fill="white" />
</svg>






